<?xml version="1.0" encoding="UTF-8" ?>
<svg version="1.1" width="171" height="60" xmlns="http://www.w3.org/2000/svg" shape-rendering="crispEdges">
<rect x="12" y="9" width="3" height="3" fill="#151D3B" />
<rect x="15" y="9" width="3" height="3" fill="#151D3B" />
<rect x="18" y="9" width="3" height="3" fill="#151D3B" />
<rect x="21" y="9" width="3" height="3" fill="#151D3B" />
<rect x="24" y="9" width="3" height="3" fill="#151D3B" />
<rect x="27" y="9" width="3" height="3" fill="#151D3B" />
<rect x="30" y="9" width="3" height="3" fill="#151D3B" />
<rect x="33" y="9" width="3" height="3" fill="#151D3B" />
<rect x="36" y="9" width="3" height="3" fill="#151D3B" />
<rect x="39" y="9" width="3" height="3" fill="#151D3B" />
<rect x="42" y="9" width="3" height="3" fill="#151D3B" />
<rect x="12" y="12" width="3" height="3" fill="#151D3B" />
<rect x="15" y="12" width="3" height="3" fill="#151D3B" />
<rect x="18" y="12" width="3" height="3" fill="#151D3B" />
<rect x="21" y="12" width="3" height="3" fill="#151D3B" />
<rect x="24" y="12" width="3" height="3" fill="#151D3B" />
<rect x="27" y="12" width="3" height="3" fill="#151D3B" />
<rect x="30" y="12" width="3" height="3" fill="#151D3B" />
<rect x="33" y="12" width="3" height="3" fill="#151D3B" />
<rect x="36" y="12" width="3" height="3" fill="#151D3B" />
<rect x="39" y="12" width="3" height="3" fill="#151D3B" />
<rect x="42" y="12" width="3" height="3" fill="#151D3B" />
<rect x="9" y="15" width="3" height="3" fill="#151D3B" />
<rect x="12" y="15" width="3" height="3" fill="#151D3B" />
<rect x="15" y="15" width="3" height="3" fill="#151D3B" />
<rect x="18" y="15" width="3" height="3" fill="#151D3B" />
<rect x="21" y="15" width="3" height="3" fill="#FFFFFF" />
<rect x="24" y="15" width="3" height="3" fill="#FFFFFF" />
<rect x="27" y="15" width="3" height="3" fill="#FFFFFF" />
<rect x="30" y="15" width="3" height="3" fill="#FFFFFF" />
<rect x="33" y="15" width="3" height="3" fill="#FFFFFF" />
<rect x="36" y="15" width="3" height="3" fill="#FFFFFF" />
<rect x="39" y="15" width="3" height="3" fill="#FFFFFF" />
<rect x="42" y="15" width="3" height="3" fill="#151D3B" />
<rect x="45" y="15" width="3" height="3" fill="#151D3B" />
<rect x="9" y="18" width="3" height="3" fill="#151D3B" />
<rect x="12" y="18" width="3" height="3" fill="#151D3B" />
<rect x="15" y="18" width="3" height="3" fill="#151D3B" />
<rect x="18" y="18" width="3" height="3" fill="#151D3B" />
<rect x="21" y="18" width="3" height="3" fill="#FFFFFF" />
<rect x="24" y="18" width="3" height="3" fill="#FFFFFF" />
<rect x="27" y="18" width="3" height="3" fill="#FFFFFF" />
<rect x="30" y="18" width="3" height="3" fill="#FFFFFF" />
<rect x="33" y="18" width="3" height="3" fill="#FFFFFF" />
<rect x="36" y="18" width="3" height="3" fill="#FFFFFF" />
<rect x="39" y="18" width="3" height="3" fill="#FFFFFF" />
<rect x="42" y="18" width="3" height="3" fill="#151D3B" />
<rect x="45" y="18" width="3" height="3" fill="#151D3B" />
<rect x="9" y="21" width="3" height="3" fill="#151D3B" />
<rect x="12" y="21" width="3" height="3" fill="#151D3B" />
<rect x="15" y="21" width="3" height="3" fill="#151D3B" />
<rect x="18" y="21" width="3" height="3" fill="#151D3B" />
<rect x="21" y="21" width="3" height="3" fill="#FFFFFF" />
<rect x="24" y="21" width="3" height="3" fill="#FFFFFF" />
<rect x="27" y="21" width="3" height="3" fill="#FFFFFF" />
<rect x="30" y="21" width="3" height="3" fill="#FFFFFF" />
<rect x="33" y="21" width="3" height="3" fill="#FFFFFF" />
<rect x="36" y="21" width="3" height="3" fill="#FFFFFF" />
<rect x="39" y="21" width="3" height="3" fill="#FFFFFF" />
<rect x="42" y="21" width="3" height="3" fill="#151D3B" />
<rect x="45" y="21" width="3" height="3" fill="#151D3B" />
<rect x="48" y="21" width="3" height="3" fill="#151D3B" />
<rect x="51" y="21" width="3" height="3" fill="#151D3B" />
<rect x="54" y="21" width="3" height="3" fill="#151D3B" />
<rect x="57" y="21" width="3" height="3" fill="#151D3B" />
<rect x="60" y="21" width="3" height="3" fill="#151D3B" />
<rect x="63" y="21" width="3" height="3" fill="#151D3B" />
<rect x="66" y="21" width="3" height="3" fill="#151D3B" />
<rect x="69" y="21" width="3" height="3" fill="#151D3B" />
<rect x="72" y="21" width="3" height="3" fill="#151D3B" />
<rect x="75" y="21" width="3" height="3" fill="#151D3B" />
<rect x="78" y="21" width="3" height="3" fill="#151D3B" />
<rect x="81" y="21" width="3" height="3" fill="#151D3B" />
<rect x="84" y="21" width="3" height="3" fill="#151D3B" />
<rect x="87" y="21" width="3" height="3" fill="#151D3B" />
<rect x="90" y="21" width="3" height="3" fill="#151D3B" />
<rect x="93" y="21" width="3" height="3" fill="#151D3B" />
<rect x="96" y="21" width="3" height="3" fill="#151D3B" />
<rect x="99" y="21" width="3" height="3" fill="#151D3B" />
<rect x="102" y="21" width="3" height="3" fill="#151D3B" />
<rect x="105" y="21" width="3" height="3" fill="#151D3B" />
<rect x="108" y="21" width="3" height="3" fill="#151D3B" />
<rect x="111" y="21" width="3" height="3" fill="#151D3B" />
<rect x="114" y="21" width="3" height="3" fill="#151D3B" />
<rect x="117" y="21" width="3" height="3" fill="#151D3B" />
<rect x="120" y="21" width="3" height="3" fill="#151D3B" />
<rect x="123" y="21" width="3" height="3" fill="#151D3B" />
<rect x="126" y="21" width="3" height="3" fill="#151D3B" />
<rect x="129" y="21" width="3" height="3" fill="#151D3B" />
<rect x="132" y="21" width="3" height="3" fill="#151D3B" />
<rect x="135" y="21" width="3" height="3" fill="#151D3B" />
<rect x="138" y="21" width="3" height="3" fill="#151D3B" />
<rect x="9" y="24" width="3" height="3" fill="#151D3B" />
<rect x="12" y="24" width="3" height="3" fill="#151D3B" />
<rect x="15" y="24" width="3" height="3" fill="#151D3B" />
<rect x="18" y="24" width="3" height="3" fill="#151D3B" />
<rect x="21" y="24" width="3" height="3" fill="#FFFFFF" />
<rect x="24" y="24" width="3" height="3" fill="#FFFFFF" />
<rect x="27" y="24" width="3" height="3" fill="#FFFFFF" />
<rect x="30" y="24" width="3" height="3" fill="#151D3B" />
<rect x="33" y="24" width="3" height="3" fill="#151D3B" />
<rect x="36" y="24" width="3" height="3" fill="#151D3B" />
<rect x="39" y="24" width="3" height="3" fill="#151D3B" />
<rect x="42" y="24" width="3" height="3" fill="#151D3B" />
<rect x="45" y="24" width="3" height="3" fill="#151D3B" />
<rect x="48" y="24" width="3" height="3" fill="#151D3B" />
<rect x="51" y="24" width="3" height="3" fill="#151D3B" />
<rect x="54" y="24" width="3" height="3" fill="#151D3B" />
<rect x="57" y="24" width="3" height="3" fill="#151D3B" />
<rect x="60" y="24" width="3" height="3" fill="#151D3B" />
<rect x="63" y="24" width="3" height="3" fill="#151D3B" />
<rect x="66" y="24" width="3" height="3" fill="#151D3B" />
<rect x="69" y="24" width="3" height="3" fill="#151D3B" />
<rect x="72" y="24" width="3" height="3" fill="#151D3B" />
<rect x="75" y="24" width="3" height="3" fill="#151D3B" />
<rect x="78" y="24" width="3" height="3" fill="#151D3B" />
<rect x="81" y="24" width="3" height="3" fill="#151D3B" />
<rect x="84" y="24" width="3" height="3" fill="#151D3B" />
<rect x="87" y="24" width="3" height="3" fill="#151D3B" />
<rect x="90" y="24" width="3" height="3" fill="#151D3B" />
<rect x="93" y="24" width="3" height="3" fill="#151D3B" />
<rect x="96" y="24" width="3" height="3" fill="#151D3B" />
<rect x="99" y="24" width="3" height="3" fill="#151D3B" />
<rect x="102" y="24" width="3" height="3" fill="#151D3B" />
<rect x="105" y="24" width="3" height="3" fill="#151D3B" />
<rect x="108" y="24" width="3" height="3" fill="#151D3B" />
<rect x="111" y="24" width="3" height="3" fill="#151D3B" />
<rect x="114" y="24" width="3" height="3" fill="#151D3B" />
<rect x="117" y="24" width="3" height="3" fill="#151D3B" />
<rect x="120" y="24" width="3" height="3" fill="#151D3B" />
<rect x="123" y="24" width="3" height="3" fill="#151D3B" />
<rect x="126" y="24" width="3" height="3" fill="#151D3B" />
<rect x="129" y="24" width="3" height="3" fill="#151D3B" />
<rect x="132" y="24" width="3" height="3" fill="#151D3B" />
<rect x="135" y="24" width="3" height="3" fill="#151D3B" />
<rect x="138" y="24" width="3" height="3" fill="#151D3B" />
<rect x="9" y="27" width="3" height="3" fill="#151D3B" />
<rect x="12" y="27" width="3" height="3" fill="#151D3B" />
<rect x="15" y="27" width="3" height="3" fill="#151D3B" />
<rect x="18" y="27" width="3" height="3" fill="#151D3B" />
<rect x="21" y="27" width="3" height="3" fill="#FFFFFF" />
<rect x="24" y="27" width="3" height="3" fill="#FFFFFF" />
<rect x="27" y="27" width="3" height="3" fill="#FFFFFF" />
<rect x="30" y="27" width="3" height="3" fill="#151D3B" />
<rect x="33" y="27" width="3" height="3" fill="#151D3B" />
<rect x="36" y="27" width="3" height="3" fill="#151D3B" />
<rect x="39" y="27" width="3" height="3" fill="#151D3B" />
<rect x="42" y="27" width="3" height="3" fill="#151D3B" />
<rect x="45" y="27" width="3" height="3" fill="#151D3B" />
<rect x="48" y="27" width="3" height="3" fill="#151D3B" />
<rect x="51" y="27" width="3" height="3" fill="#151D3B" />
<rect x="54" y="27" width="3" height="3" fill="#FFFFFF" />
<rect x="57" y="27" width="3" height="3" fill="#FFFFFF" />
<rect x="60" y="27" width="3" height="3" fill="#FFFFFF" />
<rect x="63" y="27" width="3" height="3" fill="#FFFFFF" />
<rect x="66" y="27" width="3" height="3" fill="#151D3B" />
<rect x="69" y="27" width="3" height="3" fill="#151D3B" />
<rect x="72" y="27" width="3" height="3" fill="#FFFFFF" />
<rect x="75" y="27" width="3" height="3" fill="#FFFFFF" />
<rect x="78" y="27" width="3" height="3" fill="#FFFFFF" />
<rect x="81" y="27" width="3" height="3" fill="#151D3B" />
<rect x="84" y="27" width="3" height="3" fill="#151D3B" />
<rect x="87" y="27" width="3" height="3" fill="#151D3B" />
<rect x="90" y="27" width="3" height="3" fill="#FFFFFF" />
<rect x="93" y="27" width="3" height="3" fill="#FFFFFF" />
<rect x="96" y="27" width="3" height="3" fill="#FFFFFF" />
<rect x="99" y="27" width="3" height="3" fill="#FFFFFF" />
<rect x="102" y="27" width="3" height="3" fill="#151D3B" />
<rect x="105" y="27" width="3" height="3" fill="#151D3B" />
<rect x="108" y="27" width="3" height="3" fill="#FFFFFF" />
<rect x="111" y="27" width="3" height="3" fill="#FFFFFF" />
<rect x="114" y="27" width="3" height="3" fill="#FFFFFF" />
<rect x="117" y="27" width="3" height="3" fill="#FFFFFF" />
<rect x="120" y="27" width="3" height="3" fill="#151D3B" />
<rect x="123" y="27" width="3" height="3" fill="#151D3B" />
<rect x="126" y="27" width="3" height="3" fill="#FFFFFF" />
<rect x="129" y="27" width="3" height="3" fill="#FFFFFF" />
<rect x="132" y="27" width="3" height="3" fill="#FFFFFF" />
<rect x="135" y="27" width="3" height="3" fill="#FFFFFF" />
<rect x="138" y="27" width="3" height="3" fill="#151D3B" />
<rect x="141" y="27" width="3" height="3" fill="#151D3B" />
<rect x="9" y="30" width="3" height="3" fill="#151D3B" />
<rect x="12" y="30" width="3" height="3" fill="#151D3B" />
<rect x="15" y="30" width="3" height="3" fill="#151D3B" />
<rect x="18" y="30" width="3" height="3" fill="#151D3B" />
<rect x="21" y="30" width="3" height="3" fill="#FFFFFF" />
<rect x="24" y="30" width="3" height="3" fill="#FFFFFF" />
<rect x="27" y="30" width="3" height="3" fill="#FFFFFF" />
<rect x="30" y="30" width="3" height="3" fill="#151D3B" />
<rect x="33" y="30" width="3" height="3" fill="#151D3B" />
<rect x="36" y="30" width="3" height="3" fill="#151D3B" />
<rect x="39" y="30" width="3" height="3" fill="#151D3B" />
<rect x="42" y="30" width="3" height="3" fill="#151D3B" />
<rect x="45" y="30" width="3" height="3" fill="#151D3B" />
<rect x="48" y="30" width="3" height="3" fill="#151D3B" />
<rect x="51" y="30" width="3" height="3" fill="#151D3B" />
<rect x="54" y="30" width="3" height="3" fill="#FFFFFF" />
<rect x="57" y="30" width="3" height="3" fill="#151D3B" />
<rect x="60" y="30" width="3" height="3" fill="#FFFFFF" />
<rect x="63" y="30" width="3" height="3" fill="#FFFFFF" />
<rect x="66" y="30" width="3" height="3" fill="#151D3B" />
<rect x="69" y="30" width="3" height="3" fill="#151D3B" />
<rect x="72" y="30" width="3" height="3" fill="#FFFFFF" />
<rect x="75" y="30" width="3" height="3" fill="#151D3B" />
<rect x="78" y="30" width="3" height="3" fill="#FFFFFF" />
<rect x="81" y="30" width="3" height="3" fill="#FFFFFF" />
<rect x="84" y="30" width="3" height="3" fill="#151D3B" />
<rect x="87" y="30" width="3" height="3" fill="#151D3B" />
<rect x="90" y="30" width="3" height="3" fill="#151D3B" />
<rect x="93" y="30" width="3" height="3" fill="#FFFFFF" />
<rect x="96" y="30" width="3" height="3" fill="#FFFFFF" />
<rect x="99" y="30" width="3" height="3" fill="#151D3B" />
<rect x="102" y="30" width="3" height="3" fill="#151D3B" />
<rect x="105" y="30" width="3" height="3" fill="#151D3B" />
<rect x="108" y="30" width="3" height="3" fill="#FFFFFF" />
<rect x="111" y="30" width="3" height="3" fill="#FFFFFF" />
<rect x="114" y="30" width="3" height="3" fill="#FFFFFF" />
<rect x="117" y="30" width="3" height="3" fill="#FFFFFF" />
<rect x="120" y="30" width="3" height="3" fill="#151D3B" />
<rect x="123" y="30" width="3" height="3" fill="#151D3B" />
<rect x="126" y="30" width="3" height="3" fill="#151D3B" />
<rect x="129" y="30" width="3" height="3" fill="#FFFFFF" />
<rect x="132" y="30" width="3" height="3" fill="#FFFFFF" />
<rect x="135" y="30" width="3" height="3" fill="#151D3B" />
<rect x="138" y="30" width="3" height="3" fill="#151D3B" />
<rect x="141" y="30" width="3" height="3" fill="#151D3B" />
<rect x="9" y="33" width="3" height="3" fill="#151D3B" />
<rect x="12" y="33" width="3" height="3" fill="#151D3B" />
<rect x="15" y="33" width="3" height="3" fill="#151D3B" />
<rect x="18" y="33" width="3" height="3" fill="#151D3B" />
<rect x="21" y="33" width="3" height="3" fill="#FFFFFF" />
<rect x="24" y="33" width="3" height="3" fill="#FFFFFF" />
<rect x="27" y="33" width="3" height="3" fill="#FFFFFF" />
<rect x="30" y="33" width="3" height="3" fill="#151D3B" />
<rect x="33" y="33" width="3" height="3" fill="#151D3B" />
<rect x="36" y="33" width="3" height="3" fill="#151D3B" />
<rect x="39" y="33" width="3" height="3" fill="#151D3B" />
<rect x="42" y="33" width="3" height="3" fill="#151D3B" />
<rect x="45" y="33" width="3" height="3" fill="#151D3B" />
<rect x="48" y="33" width="3" height="3" fill="#151D3B" />
<rect x="51" y="33" width="3" height="3" fill="#151D3B" />
<rect x="54" y="33" width="3" height="3" fill="#FFFFFF" />
<rect x="57" y="33" width="3" height="3" fill="#151D3B" />
<rect x="60" y="33" width="3" height="3" fill="#FFFFFF" />
<rect x="63" y="33" width="3" height="3" fill="#FFFFFF" />
<rect x="66" y="33" width="3" height="3" fill="#151D3B" />
<rect x="69" y="33" width="3" height="3" fill="#151D3B" />
<rect x="72" y="33" width="3" height="3" fill="#FFFFFF" />
<rect x="75" y="33" width="3" height="3" fill="#151D3B" />
<rect x="78" y="33" width="3" height="3" fill="#FFFFFF" />
<rect x="81" y="33" width="3" height="3" fill="#FFFFFF" />
<rect x="84" y="33" width="3" height="3" fill="#151D3B" />
<rect x="87" y="33" width="3" height="3" fill="#151D3B" />
<rect x="90" y="33" width="3" height="3" fill="#151D3B" />
<rect x="93" y="33" width="3" height="3" fill="#FFFFFF" />
<rect x="96" y="33" width="3" height="3" fill="#FFFFFF" />
<rect x="99" y="33" width="3" height="3" fill="#151D3B" />
<rect x="102" y="33" width="3" height="3" fill="#151D3B" />
<rect x="105" y="33" width="3" height="3" fill="#151D3B" />
<rect x="108" y="33" width="3" height="3" fill="#FFFFFF" />
<rect x="111" y="33" width="3" height="3" fill="#FFFFFF" />
<rect x="114" y="33" width="3" height="3" fill="#151D3B" />
<rect x="117" y="33" width="3" height="3" fill="#151D3B" />
<rect x="120" y="33" width="3" height="3" fill="#151D3B" />
<rect x="123" y="33" width="3" height="3" fill="#151D3B" />
<rect x="126" y="33" width="3" height="3" fill="#151D3B" />
<rect x="129" y="33" width="3" height="3" fill="#FFFFFF" />
<rect x="132" y="33" width="3" height="3" fill="#FFFFFF" />
<rect x="135" y="33" width="3" height="3" fill="#151D3B" />
<rect x="138" y="33" width="3" height="3" fill="#151D3B" />
<rect x="141" y="33" width="3" height="3" fill="#151D3B" />
<rect x="9" y="36" width="3" height="3" fill="#151D3B" />
<rect x="12" y="36" width="3" height="3" fill="#151D3B" />
<rect x="15" y="36" width="3" height="3" fill="#151D3B" />
<rect x="18" y="36" width="3" height="3" fill="#151D3B" />
<rect x="21" y="36" width="3" height="3" fill="#FFFFFF" />
<rect x="24" y="36" width="3" height="3" fill="#FFFFFF" />
<rect x="27" y="36" width="3" height="3" fill="#FFFFFF" />
<rect x="30" y="36" width="3" height="3" fill="#FFFFFF" />
<rect x="33" y="36" width="3" height="3" fill="#FFFFFF" />
<rect x="36" y="36" width="3" height="3" fill="#FFFFFF" />
<rect x="39" y="36" width="3" height="3" fill="#FFFFFF" />
<rect x="42" y="36" width="3" height="3" fill="#151D3B" />
<rect x="45" y="36" width="3" height="3" fill="#151D3B" />
<rect x="48" y="36" width="3" height="3" fill="#151D3B" />
<rect x="51" y="36" width="3" height="3" fill="#151D3B" />
<rect x="54" y="36" width="3" height="3" fill="#FFFFFF" />
<rect x="57" y="36" width="3" height="3" fill="#151D3B" />
<rect x="60" y="36" width="3" height="3" fill="#FFFFFF" />
<rect x="63" y="36" width="3" height="3" fill="#FFFFFF" />
<rect x="66" y="36" width="3" height="3" fill="#151D3B" />
<rect x="69" y="36" width="3" height="3" fill="#151D3B" />
<rect x="72" y="36" width="3" height="3" fill="#FFFFFF" />
<rect x="75" y="36" width="3" height="3" fill="#151D3B" />
<rect x="78" y="36" width="3" height="3" fill="#FFFFFF" />
<rect x="81" y="36" width="3" height="3" fill="#FFFFFF" />
<rect x="84" y="36" width="3" height="3" fill="#151D3B" />
<rect x="87" y="36" width="3" height="3" fill="#151D3B" />
<rect x="90" y="36" width="3" height="3" fill="#151D3B" />
<rect x="93" y="36" width="3" height="3" fill="#FFFFFF" />
<rect x="96" y="36" width="3" height="3" fill="#FFFFFF" />
<rect x="99" y="36" width="3" height="3" fill="#151D3B" />
<rect x="102" y="36" width="3" height="3" fill="#151D3B" />
<rect x="105" y="36" width="3" height="3" fill="#151D3B" />
<rect x="108" y="36" width="3" height="3" fill="#151D3B" />
<rect x="111" y="36" width="3" height="3" fill="#151D3B" />
<rect x="114" y="36" width="3" height="3" fill="#FFFFFF" />
<rect x="117" y="36" width="3" height="3" fill="#FFFFFF" />
<rect x="120" y="36" width="3" height="3" fill="#151D3B" />
<rect x="123" y="36" width="3" height="3" fill="#151D3B" />
<rect x="126" y="36" width="3" height="3" fill="#151D3B" />
<rect x="129" y="36" width="3" height="3" fill="#FFFFFF" />
<rect x="132" y="36" width="3" height="3" fill="#FFFFFF" />
<rect x="135" y="36" width="3" height="3" fill="#151D3B" />
<rect x="138" y="36" width="3" height="3" fill="#151D3B" />
<rect x="141" y="36" width="3" height="3" fill="#151D3B" />
<rect x="9" y="39" width="3" height="3" fill="#151D3B" />
<rect x="12" y="39" width="3" height="3" fill="#151D3B" />
<rect x="15" y="39" width="3" height="3" fill="#151D3B" />
<rect x="18" y="39" width="3" height="3" fill="#151D3B" />
<rect x="21" y="39" width="3" height="3" fill="#FFFFFF" />
<rect x="24" y="39" width="3" height="3" fill="#FFFFFF" />
<rect x="27" y="39" width="3" height="3" fill="#FFFFFF" />
<rect x="30" y="39" width="3" height="3" fill="#FFFFFF" />
<rect x="33" y="39" width="3" height="3" fill="#FFFFFF" />
<rect x="36" y="39" width="3" height="3" fill="#FFFFFF" />
<rect x="39" y="39" width="3" height="3" fill="#FFFFFF" />
<rect x="42" y="39" width="3" height="3" fill="#151D3B" />
<rect x="45" y="39" width="3" height="3" fill="#151D3B" />
<rect x="48" y="39" width="3" height="3" fill="#151D3B" />
<rect x="51" y="39" width="3" height="3" fill="#151D3B" />
<rect x="54" y="39" width="3" height="3" fill="#FFFFFF" />
<rect x="57" y="39" width="3" height="3" fill="#151D3B" />
<rect x="60" y="39" width="3" height="3" fill="#FFFFFF" />
<rect x="63" y="39" width="3" height="3" fill="#FFFFFF" />
<rect x="66" y="39" width="3" height="3" fill="#151D3B" />
<rect x="69" y="39" width="3" height="3" fill="#151D3B" />
<rect x="72" y="39" width="3" height="3" fill="#FFFFFF" />
<rect x="75" y="39" width="3" height="3" fill="#151D3B" />
<rect x="78" y="39" width="3" height="3" fill="#FFFFFF" />
<rect x="81" y="39" width="3" height="3" fill="#FFFFFF" />
<rect x="84" y="39" width="3" height="3" fill="#151D3B" />
<rect x="87" y="39" width="3" height="3" fill="#151D3B" />
<rect x="90" y="39" width="3" height="3" fill="#151D3B" />
<rect x="93" y="39" width="3" height="3" fill="#FFFFFF" />
<rect x="96" y="39" width="3" height="3" fill="#FFFFFF" />
<rect x="99" y="39" width="3" height="3" fill="#151D3B" />
<rect x="102" y="39" width="3" height="3" fill="#151D3B" />
<rect x="105" y="39" width="3" height="3" fill="#151D3B" />
<rect x="108" y="39" width="3" height="3" fill="#FFFFFF" />
<rect x="111" y="39" width="3" height="3" fill="#FFFFFF" />
<rect x="114" y="39" width="3" height="3" fill="#FFFFFF" />
<rect x="117" y="39" width="3" height="3" fill="#FFFFFF" />
<rect x="120" y="39" width="3" height="3" fill="#151D3B" />
<rect x="123" y="39" width="3" height="3" fill="#151D3B" />
<rect x="126" y="39" width="3" height="3" fill="#151D3B" />
<rect x="129" y="39" width="3" height="3" fill="#FFFFFF" />
<rect x="132" y="39" width="3" height="3" fill="#FFFFFF" />
<rect x="135" y="39" width="3" height="3" fill="#151D3B" />
<rect x="138" y="39" width="3" height="3" fill="#151D3B" />
<rect x="141" y="39" width="3" height="3" fill="#151D3B" />
<rect x="9" y="42" width="3" height="3" fill="#151D3B" />
<rect x="12" y="42" width="3" height="3" fill="#151D3B" />
<rect x="15" y="42" width="3" height="3" fill="#151D3B" />
<rect x="18" y="42" width="3" height="3" fill="#151D3B" />
<rect x="21" y="42" width="3" height="3" fill="#FFFFFF" />
<rect x="24" y="42" width="3" height="3" fill="#FFFFFF" />
<rect x="27" y="42" width="3" height="3" fill="#FFFFFF" />
<rect x="30" y="42" width="3" height="3" fill="#FFFFFF" />
<rect x="33" y="42" width="3" height="3" fill="#FFFFFF" />
<rect x="36" y="42" width="3" height="3" fill="#FFFFFF" />
<rect x="39" y="42" width="3" height="3" fill="#FFFFFF" />
<rect x="42" y="42" width="3" height="3" fill="#151D3B" />
<rect x="45" y="42" width="3" height="3" fill="#151D3B" />
<rect x="48" y="42" width="3" height="3" fill="#151D3B" />
<rect x="51" y="42" width="3" height="3" fill="#151D3B" />
<rect x="54" y="42" width="3" height="3" fill="#FFFFFF" />
<rect x="57" y="42" width="3" height="3" fill="#FFFFFF" />
<rect x="60" y="42" width="3" height="3" fill="#FFFFFF" />
<rect x="63" y="42" width="3" height="3" fill="#FFFFFF" />
<rect x="66" y="42" width="3" height="3" fill="#151D3B" />
<rect x="69" y="42" width="3" height="3" fill="#151D3B" />
<rect x="72" y="42" width="3" height="3" fill="#FFFFFF" />
<rect x="75" y="42" width="3" height="3" fill="#FFFFFF" />
<rect x="78" y="42" width="3" height="3" fill="#FFFFFF" />
<rect x="81" y="42" width="3" height="3" fill="#151D3B" />
<rect x="84" y="42" width="3" height="3" fill="#151D3B" />
<rect x="87" y="42" width="3" height="3" fill="#151D3B" />
<rect x="90" y="42" width="3" height="3" fill="#FFFFFF" />
<rect x="93" y="42" width="3" height="3" fill="#FFFFFF" />
<rect x="96" y="42" width="3" height="3" fill="#FFFFFF" />
<rect x="99" y="42" width="3" height="3" fill="#FFFFFF" />
<rect x="102" y="42" width="3" height="3" fill="#151D3B" />
<rect x="105" y="42" width="3" height="3" fill="#151D3B" />
<rect x="108" y="42" width="3" height="3" fill="#FFFFFF" />
<rect x="111" y="42" width="3" height="3" fill="#FFFFFF" />
<rect x="114" y="42" width="3" height="3" fill="#FFFFFF" />
<rect x="117" y="42" width="3" height="3" fill="#FFFFFF" />
<rect x="120" y="42" width="3" height="3" fill="#151D3B" />
<rect x="123" y="42" width="3" height="3" fill="#151D3B" />
<rect x="126" y="42" width="3" height="3" fill="#151D3B" />
<rect x="129" y="42" width="3" height="3" fill="#FFFFFF" />
<rect x="132" y="42" width="3" height="3" fill="#FFFFFF" />
<rect x="135" y="42" width="3" height="3" fill="#151D3B" />
<rect x="138" y="42" width="3" height="3" fill="#151D3B" />
<rect x="141" y="42" width="3" height="3" fill="#151D3B" />
<rect x="9" y="45" width="3" height="3" fill="#151D3B" />
<rect x="12" y="45" width="3" height="3" fill="#151D3B" />
<rect x="15" y="45" width="3" height="3" fill="#151D3B" />
<rect x="18" y="45" width="3" height="3" fill="#151D3B" />
<rect x="21" y="45" width="3" height="3" fill="#151D3B" />
<rect x="24" y="45" width="3" height="3" fill="#151D3B" />
<rect x="27" y="45" width="3" height="3" fill="#151D3B" />
<rect x="30" y="45" width="3" height="3" fill="#151D3B" />
<rect x="33" y="45" width="3" height="3" fill="#151D3B" />
<rect x="36" y="45" width="3" height="3" fill="#151D3B" />
<rect x="39" y="45" width="3" height="3" fill="#151D3B" />
<rect x="42" y="45" width="3" height="3" fill="#151D3B" />
<rect x="45" y="45" width="3" height="3" fill="#151D3B" />
<rect x="48" y="45" width="3" height="3" fill="#151D3B" />
<rect x="51" y="45" width="3" height="3" fill="#151D3B" />
<rect x="54" y="45" width="3" height="3" fill="#151D3B" />
<rect x="57" y="45" width="3" height="3" fill="#151D3B" />
<rect x="60" y="45" width="3" height="3" fill="#151D3B" />
<rect x="63" y="45" width="3" height="3" fill="#151D3B" />
<rect x="66" y="45" width="3" height="3" fill="#151D3B" />
<rect x="69" y="45" width="3" height="3" fill="#151D3B" />
<rect x="72" y="45" width="3" height="3" fill="#151D3B" />
<rect x="75" y="45" width="3" height="3" fill="#151D3B" />
<rect x="78" y="45" width="3" height="3" fill="#151D3B" />
<rect x="81" y="45" width="3" height="3" fill="#151D3B" />
<rect x="84" y="45" width="3" height="3" fill="#151D3B" />
<rect x="87" y="45" width="3" height="3" fill="#151D3B" />
<rect x="90" y="45" width="3" height="3" fill="#151D3B" />
<rect x="93" y="45" width="3" height="3" fill="#151D3B" />
<rect x="96" y="45" width="3" height="3" fill="#151D3B" />
<rect x="99" y="45" width="3" height="3" fill="#151D3B" />
<rect x="102" y="45" width="3" height="3" fill="#151D3B" />
<rect x="105" y="45" width="3" height="3" fill="#151D3B" />
<rect x="108" y="45" width="3" height="3" fill="#151D3B" />
<rect x="111" y="45" width="3" height="3" fill="#151D3B" />
<rect x="114" y="45" width="3" height="3" fill="#151D3B" />
<rect x="117" y="45" width="3" height="3" fill="#151D3B" />
<rect x="120" y="45" width="3" height="3" fill="#151D3B" />
<rect x="123" y="45" width="3" height="3" fill="#151D3B" />
<rect x="126" y="45" width="3" height="3" fill="#151D3B" />
<rect x="129" y="45" width="3" height="3" fill="#151D3B" />
<rect x="132" y="45" width="3" height="3" fill="#151D3B" />
<rect x="135" y="45" width="3" height="3" fill="#151D3B" />
<rect x="138" y="45" width="3" height="3" fill="#151D3B" />
<rect x="141" y="45" width="3" height="3" fill="#151D3B" />
<rect x="9" y="48" width="3" height="3" fill="#151D3B" />
<rect x="12" y="48" width="3" height="3" fill="#151D3B" />
<rect x="15" y="48" width="3" height="3" fill="#151D3B" />
<rect x="18" y="48" width="3" height="3" fill="#151D3B" />
<rect x="21" y="48" width="3" height="3" fill="#151D3B" />
<rect x="24" y="48" width="3" height="3" fill="#151D3B" />
<rect x="27" y="48" width="3" height="3" fill="#151D3B" />
<rect x="30" y="48" width="3" height="3" fill="#151D3B" />
<rect x="33" y="48" width="3" height="3" fill="#151D3B" />
<rect x="36" y="48" width="3" height="3" fill="#151D3B" />
<rect x="39" y="48" width="3" height="3" fill="#151D3B" />
<rect x="42" y="48" width="3" height="3" fill="#151D3B" />
<rect x="45" y="48" width="3" height="3" fill="#151D3B" />
<rect x="48" y="48" width="3" height="3" fill="#151D3B" />
<rect x="51" y="48" width="3" height="3" fill="#151D3B" />
<rect x="54" y="48" width="3" height="3" fill="#151D3B" />
<rect x="57" y="48" width="3" height="3" fill="#151D3B" />
<rect x="60" y="48" width="3" height="3" fill="#151D3B" />
<rect x="63" y="48" width="3" height="3" fill="#151D3B" />
<rect x="66" y="48" width="3" height="3" fill="#151D3B" />
<rect x="69" y="48" width="3" height="3" fill="#151D3B" />
<rect x="72" y="48" width="3" height="3" fill="#151D3B" />
<rect x="75" y="48" width="3" height="3" fill="#151D3B" />
<rect x="78" y="48" width="3" height="3" fill="#151D3B" />
<rect x="81" y="48" width="3" height="3" fill="#151D3B" />
<rect x="84" y="48" width="3" height="3" fill="#151D3B" />
<rect x="87" y="48" width="3" height="3" fill="#151D3B" />
<rect x="90" y="48" width="3" height="3" fill="#151D3B" />
<rect x="93" y="48" width="3" height="3" fill="#151D3B" />
<rect x="96" y="48" width="3" height="3" fill="#151D3B" />
<rect x="99" y="48" width="3" height="3" fill="#151D3B" />
<rect x="102" y="48" width="3" height="3" fill="#151D3B" />
<rect x="105" y="48" width="3" height="3" fill="#151D3B" />
<rect x="108" y="48" width="3" height="3" fill="#151D3B" />
<rect x="111" y="48" width="3" height="3" fill="#151D3B" />
<rect x="114" y="48" width="3" height="3" fill="#151D3B" />
<rect x="117" y="48" width="3" height="3" fill="#151D3B" />
<rect x="120" y="48" width="3" height="3" fill="#151D3B" />
<rect x="123" y="48" width="3" height="3" fill="#151D3B" />
<rect x="126" y="48" width="3" height="3" fill="#151D3B" />
<rect x="129" y="48" width="3" height="3" fill="#151D3B" />
<rect x="132" y="48" width="3" height="3" fill="#151D3B" />
<rect x="135" y="48" width="3" height="3" fill="#151D3B" />
<rect x="138" y="48" width="3" height="3" fill="#151D3B" />
<rect x="141" y="48" width="3" height="3" fill="#151D3B" />
<rect x="12" y="51" width="3" height="3" fill="#151D3B" />
<rect x="15" y="51" width="3" height="3" fill="#151D3B" />
<rect x="18" y="51" width="3" height="3" fill="#151D3B" />
<rect x="21" y="51" width="3" height="3" fill="#151D3B" />
<rect x="24" y="51" width="3" height="3" fill="#151D3B" />
<rect x="27" y="51" width="3" height="3" fill="#151D3B" />
<rect x="30" y="51" width="3" height="3" fill="#151D3B" />
<rect x="33" y="51" width="3" height="3" fill="#151D3B" />
<rect x="36" y="51" width="3" height="3" fill="#151D3B" />
<rect x="39" y="51" width="3" height="3" fill="#151D3B" />
<rect x="42" y="51" width="3" height="3" fill="#151D3B" />
<rect x="45" y="51" width="3" height="3" fill="#151D3B" />
<rect x="48" y="51" width="3" height="3" fill="#151D3B" />
<rect x="51" y="51" width="3" height="3" fill="#151D3B" />
<rect x="54" y="51" width="3" height="3" fill="#151D3B" />
<rect x="57" y="51" width="3" height="3" fill="#151D3B" />
<rect x="60" y="51" width="3" height="3" fill="#151D3B" />
<rect x="63" y="51" width="3" height="3" fill="#151D3B" />
<rect x="66" y="51" width="3" height="3" fill="#151D3B" />
<rect x="69" y="51" width="3" height="3" fill="#151D3B" />
<rect x="72" y="51" width="3" height="3" fill="#151D3B" />
<rect x="75" y="51" width="3" height="3" fill="#151D3B" />
<rect x="78" y="51" width="3" height="3" fill="#151D3B" />
<rect x="81" y="51" width="3" height="3" fill="#151D3B" />
<rect x="84" y="51" width="3" height="3" fill="#151D3B" />
<rect x="87" y="51" width="3" height="3" fill="#151D3B" />
<rect x="90" y="51" width="3" height="3" fill="#151D3B" />
<rect x="93" y="51" width="3" height="3" fill="#151D3B" />
<rect x="96" y="51" width="3" height="3" fill="#151D3B" />
<rect x="99" y="51" width="3" height="3" fill="#151D3B" />
<rect x="102" y="51" width="3" height="3" fill="#151D3B" />
<rect x="105" y="51" width="3" height="3" fill="#151D3B" />
<rect x="108" y="51" width="3" height="3" fill="#151D3B" />
<rect x="111" y="51" width="3" height="3" fill="#151D3B" />
<rect x="114" y="51" width="3" height="3" fill="#151D3B" />
<rect x="117" y="51" width="3" height="3" fill="#151D3B" />
<rect x="120" y="51" width="3" height="3" fill="#151D3B" />
<rect x="123" y="51" width="3" height="3" fill="#151D3B" />
<rect x="126" y="51" width="3" height="3" fill="#151D3B" />
<rect x="129" y="51" width="3" height="3" fill="#151D3B" />
<rect x="132" y="51" width="3" height="3" fill="#151D3B" />
<rect x="135" y="51" width="3" height="3" fill="#151D3B" />
<rect x="138" y="51" width="3" height="3" fill="#151D3B" />
<rect x="12" y="54" width="3" height="3" fill="#151D3B" />
<rect x="15" y="54" width="3" height="3" fill="#151D3B" />
<rect x="18" y="54" width="3" height="3" fill="#151D3B" />
<rect x="21" y="54" width="3" height="3" fill="#151D3B" />
<rect x="24" y="54" width="3" height="3" fill="#151D3B" />
<rect x="27" y="54" width="3" height="3" fill="#151D3B" />
<rect x="30" y="54" width="3" height="3" fill="#151D3B" />
<rect x="33" y="54" width="3" height="3" fill="#151D3B" />
<rect x="36" y="54" width="3" height="3" fill="#151D3B" />
<rect x="39" y="54" width="3" height="3" fill="#151D3B" />
<rect x="42" y="54" width="3" height="3" fill="#151D3B" />
<rect x="45" y="54" width="3" height="3" fill="#151D3B" />
<rect x="48" y="54" width="3" height="3" fill="#151D3B" />
<rect x="51" y="54" width="3" height="3" fill="#151D3B" />
<rect x="54" y="54" width="3" height="3" fill="#151D3B" />
<rect x="57" y="54" width="3" height="3" fill="#151D3B" />
<rect x="60" y="54" width="3" height="3" fill="#151D3B" />
<rect x="63" y="54" width="3" height="3" fill="#151D3B" />
<rect x="66" y="54" width="3" height="3" fill="#151D3B" />
<rect x="69" y="54" width="3" height="3" fill="#151D3B" />
<rect x="72" y="54" width="3" height="3" fill="#151D3B" />
<rect x="75" y="54" width="3" height="3" fill="#151D3B" />
<rect x="78" y="54" width="3" height="3" fill="#151D3B" />
<rect x="81" y="54" width="3" height="3" fill="#151D3B" />
<rect x="84" y="54" width="3" height="3" fill="#151D3B" />
<rect x="87" y="54" width="3" height="3" fill="#151D3B" />
<rect x="90" y="54" width="3" height="3" fill="#151D3B" />
<rect x="93" y="54" width="3" height="3" fill="#151D3B" />
<rect x="96" y="54" width="3" height="3" fill="#151D3B" />
<rect x="99" y="54" width="3" height="3" fill="#151D3B" />
<rect x="102" y="54" width="3" height="3" fill="#151D3B" />
<rect x="105" y="54" width="3" height="3" fill="#151D3B" />
<rect x="108" y="54" width="3" height="3" fill="#151D3B" />
<rect x="111" y="54" width="3" height="3" fill="#151D3B" />
<rect x="114" y="54" width="3" height="3" fill="#151D3B" />
<rect x="117" y="54" width="3" height="3" fill="#151D3B" />
<rect x="120" y="54" width="3" height="3" fill="#151D3B" />
<rect x="123" y="54" width="3" height="3" fill="#151D3B" />
<rect x="126" y="54" width="3" height="3" fill="#151D3B" />
<rect x="129" y="54" width="3" height="3" fill="#151D3B" />
<rect x="132" y="54" width="3" height="3" fill="#151D3B" />
<rect x="135" y="54" width="3" height="3" fill="#151D3B" />
<rect x="138" y="54" width="3" height="3" fill="#151D3B" />
</svg>